# ProBuilder 4.2.3
# https://unity3d.com/unity/features/worldbuilding/probuilder
# 17/04/2020 07:09:10

mtllib ./RoomSquare2.mtl
o RoomSquare2

g Detail
v -6 3 -5
v -5 3 -4
v -4 3 -5
v -5 3 -6
v -6 1 -5
v -5 1 -6
v -4 1 -5
v -5 1 -4

vt 0 0
vt -1 1
vt -2 0
vt -1 -1
vt 1 -1
vt 2 0
vt 1 1
vt -1.414214 0
vt 0 2
vt -1.414214 2
vt 1.414214 0
vt 1.414214 2

vn 0 1 0
vn 0 -1 0
vn -0.7071068 0 -0.7071068
vn 0.7071068 0 -0.7071068
vn 0.7071068 0 0.7071068
vn -0.7071068 0 0.7071068

usemtl ProBuilder_Default_URP
f 2/2/1 3/3/1 4/4/1 1/1/1
f 5/1/2 6/5/2 7/6/2 8/7/2
f 1/9/3 4/10/3 6/8/3 5/1/3
f 4/9/4 3/10/4 7/8/4 6/1/4
f 3/12/5 2/9/5 8/1/5 7/11/5
f 2/12/6 1/9/6 5/1/6 8/11/6

g Wall
v -10 3 -1
v -10 3 0
v 0 3 0
v 0 3 -1
v -10 1 -1
v 0 1 -1
v 0 1 0
v -10 1 0

vt 0 0
vt 0 1
vt -10 1
vt -10 0
vt 10 0
vt 10 1
vt 0 2
vt -10 2
vt -1 0
vt -1 2
vt 1 0
vt 1 2
vt 10 2

vn 0 1 0
vn 0 -1 0
vn 0 0 -1
vn 1 0 0
vn -1 0 0
vn 0 0 1

usemtl ProBuilder_Default_URP
f 10/14/7 11/15/7 12/16/7 9/13/7
f 14/17/8 15/18/8 16/14/8 13/13/8
f 9/19/9 12/20/9 14/16/9 13/13/9
f 12/19/10 11/22/10 15/21/10 14/13/10
f 10/24/11 9/19/11 13/13/11 16/23/11
f 11/25/12 10/19/12 16/13/12 15/17/12

g Detail
v -1 3 -2
v -1 3 -1
v -2 3 -1
v -1 1 -2
v -1 1 -1
v -2 1 -1

vt 0 0
vt 0 1
vt 1 1
vt -1 1
vt -1 0
vt 0 2
vt -1 2
vt 1.414214 0
vt 1.414214 2

vn 0 1 0
vn 0 -1 0
vn 1 0 0
vn 0 0 1
vn -0.7071068 0 -0.7071068

usemtl ProBuilder_Default_URP
f 19/28/13 18/27/13 17/26/13
f 20/26/14 21/27/14 22/29/14
f 18/32/15 21/30/15 20/26/15
f 20/26/15 17/31/15 18/32/15
f 19/32/16 22/30/16 21/26/16
f 21/26/16 18/31/16 19/32/16
f 17/31/17 20/26/17 22/33/17
f 22/33/17 19/34/17 17/31/17

g Floor
v 0 0 0
v -10 0 0
v 0 1 0
v -10 1 0
v -10 0 -10
v -10 1 -10
v 0 0 -10
v 0 1 -10

vt 0 0
vt -10 0
vt 0 1
vt -10 1
vt 10 0
vt 10 1
vt 0 -10
vt 10 -10
vt -10 -10

vn 0 0 1
vn -1 0 0
vn 0 0 -1
vn 1 0 0
vn 0 1 0
vn 0 -1 0

usemtl ProBuilder_Default_URP
f 25/37/18 26/38/18 24/36/18 23/35/18
f 26/37/19 28/38/19 27/36/19 24/35/19
f 28/40/20 30/37/20 29/35/20 27/39/20
f 30/40/21 25/37/21 23/35/21 29/39/21
f 30/41/22 28/42/22 26/39/22 25/35/22
f 23/35/23 24/36/23 27/43/23 29/41/23

g Wall
v 0 3 -10
v -8.045053 3 -10
v -10 3 -10
v -10 3 -9
v 0 3 -9
v -8.045053 1 -10
v 0 1 -10
v 0 1 -9
v -10 1 -9
v -10 1 -10

vt 0 0
vt 8.045053 0
vt 10 0
vt 10 1
vt 0 1
vt -8.045053 0
vt -10 1
vt -10 0
vt 8.045053 2
vt 0 2
vt -1 0
vt -1 2
vt 1 0
vt 1 2
vt 10 2
vt -10 2

vn 0 1 0
vn 0 -1 0
vn 0 0 -1
vn 1 0 0
vn -1 0 0
vn 0 0 1

usemtl ProBuilder_Default_URP
f 35/48/24 31/44/24 32/45/24
f 32/45/24 33/46/24 34/47/24
f 35/48/24 32/45/24 34/47/24
f 39/50/25 36/49/25 38/48/25
f 39/50/25 40/51/25 36/49/25
f 36/49/25 37/44/25 38/48/25
f 31/53/26 37/44/26 36/45/26
f 36/45/26 32/52/26 31/53/26
f 35/55/27 38/54/27 37/44/27
f 37/44/27 31/53/27 35/55/27
f 33/53/28 40/44/28 39/56/28
f 39/56/28 34/57/28 33/53/28
f 32/52/26 36/45/26 40/46/26
f 40/46/26 33/58/26 32/52/26
f 34/59/29 39/51/29 38/44/29
f 38/44/29 35/53/29 34/59/29

g Wall
v -10 3 -9
v -10 3 -1
v -9 3 -1
v -9 3 -9
v -10 1 -9
v -9 1 -9
v -9 1 -1
v -10 1 -1

vt 0 0
vt 0 8
vt -1 8
vt -1 0
vt 1 0
vt 1 8
vt 0 2
vt -1 2
vt -8 0
vt -8 2
vt 8 0
vt 8 2
vt 1 2

vn 0 1 0
vn 0 -1 0
vn 0 0 -1
vn 1 0 0
vn -1 0 0
vn 0 0 1

usemtl ProBuilder_Default_URP
f 42/61/30 43/62/30 44/63/30 41/60/30
f 46/64/31 47/65/31 48/61/31 45/60/31
f 41/66/32 44/67/32 46/63/32 45/60/32
f 44/66/33 43/69/33 47/68/33 46/60/33
f 42/71/34 41/66/34 45/60/34 48/70/34
f 43/72/35 42/66/35 48/60/35 47/64/35

g Wall
v -1 3 -4
v 0 3 -4
v 0 3 -1
v -1 3 -1
v -1 1 -4
v 0 1 -4
v 0 1 -1
v -1 1 -1

vt 0 0
vt -1 0
vt -1 3
vt 0 3
vt 1 0
vt 1 3
vt 0 2
vt -1 2
vt -3 0
vt -3 2
vt 3 0
vt 3 2
vt 1 2

vn 0 1 0
vn 0 -1 0
vn 0 0 -1
vn 1 0 0
vn -1 0 0
vn 0 0 1

usemtl ProBuilder_Default_URP
f 52/76/36 51/75/36 50/74/36 49/73/36
f 54/77/37 55/78/37 56/76/37 53/73/37
f 49/79/38 50/80/38 54/74/38 53/73/38
f 50/79/39 51/82/39 55/81/39 54/73/39
f 52/84/40 49/79/40 53/73/40 56/83/40
f 51/85/41 52/79/41 56/73/41 55/77/41

g Detail
v -8 3 -1
v -9 3 -1
v -9 3 -2
v -9 1 -1
v -9 1 -2
v -8 1 -1

vt 0 0
vt 1 0
vt 1 -1
vt -1 0
vt -1 -1
vt 0 2
vt -1 2
vt 1.414214 0
vt 1.414214 2

vn 0 1 0
vn 0 -1 0
vn -1 0 0
vn 0.7071068 0 -0.7071068
vn 0 0 1

usemtl ProBuilder_Default_URP
f 57/86/42 59/88/42 58/87/42
f 60/89/43 61/90/43 62/86/43
f 59/92/44 61/89/44 60/86/44
f 60/86/44 58/91/44 59/92/44
f 57/91/45 62/86/45 61/93/45
f 61/93/45 59/94/45 57/91/45
f 58/92/46 60/89/46 62/86/46
f 62/86/46 57/91/46 58/92/46

g Detail
v -2 3 -9
v -1 3 -9
v -1 3 -8
v -2 1 -9
v -1 1 -9
v -1 1 -8

vt 0 0
vt -1 0
vt -1 1
vt 1 0
vt 1 1
vt 0 2
vt -1 2
vt 1.414214 0
vt 1.414214 2

vn 0 1 0
vn 0 -1 0
vn 0 0 -1
vn 1 0 0
vn -0.7071068 0 0.7071068

usemtl ProBuilder_Default_URP
f 65/97/47 64/96/47 63/95/47
f 66/95/48 67/98/48 68/99/48
f 64/101/49 67/96/49 66/95/49
f 66/95/49 63/100/49 64/101/49
f 65/101/50 68/96/50 67/95/50
f 67/95/50 64/100/50 65/101/50
f 63/100/51 66/95/51 68/102/51
f 68/102/51 65/103/51 63/100/51

g Wall
v -1 3 -6
v -1 3 -9
v 0 3 -9
v 0 3 -6
v -1 1 -9
v 0 1 -9
v 0 1 -6
v -1 1 -6

vt 0 0
vt 0 -3
vt -1 -3
vt -1 0
vt 1 -3
vt 1 0
vt 0 2
vt -1 2
vt 3 0
vt 3 2
vt -3 0
vt -3 2
vt 1 2

vn 0 1 0
vn 0 -1 0
vn 0 0 -1
vn 1 0 0
vn -1 0 0
vn 0 0 1

usemtl ProBuilder_Default_URP
f 69/104/52 72/107/52 71/106/52 70/105/52
f 74/108/53 75/109/53 76/104/53 73/105/53
f 70/110/54 71/111/54 74/107/54 73/104/54
f 71/113/55 72/110/55 75/104/55 74/112/55
f 69/110/56 70/115/56 73/114/56 76/104/56
f 72/116/57 69/110/57 76/104/57 75/109/57

g Detail
v -9 3 -8
v -8 3 -9
v -9 3 -9
v -9 1 -8
v -9 1 -9
v -8 1 -9

vt 0 0
vt -1 -1
vt 0 -1
vt 1 -1
vt -1 0
vt 0 2
vt -1 2
vt 1.414214 0
vt 1.414214 2

vn 0 1 0
vn 0 -1 0
vn -1 0 0
vn 0 0 -1
vn 0.7071068 0 0.7071068

usemtl ProBuilder_Default_URP
f 78/118/58 79/119/58 77/117/58
f 80/117/59 81/119/59 82/120/59
f 79/123/60 81/121/60 80/117/60
f 80/117/60 77/122/60 79/123/60
f 78/123/61 82/121/61 81/117/61
f 81/117/61 79/122/61 78/123/61
f 77/122/62 80/117/62 82/124/62
f 82/124/62 78/125/62 77/122/62

